<svg version="1" xmlns="http://www.w3.org/2000/svg" width="933.333" height="933.333" viewBox="0 0 700.000000 700.000000"><path d="M328.5.6c-20.3 2-27.6 2.8-37.5 4.5-61 10.5-119.5 37.6-166.5 77.2-9.5 8.1-31 29.4-39.4 39.2C38.3 175.7 10.9 239.1 1.8 314c-1.7 13.7-1.7 58.3 0 72 6.9 56.9 22.7 102.8 51.4 149.1 14.5 23.6 31.1 44 52.5 64.9 20.4 20 37.1 33.2 59.2 46.8 46.3 28.7 92.2 44.5 149.1 51.4 13.7 1.7 58.3 1.7 72 0 56.9-6.9 102.8-22.7 149.1-51.4 36-22.2 69.2-52.8 95.8-88.2 32.3-43 54.9-96 64-150.1 3.8-22.3 4.6-32.7 4.6-58.5 0-25.8-.8-36.2-4.6-58.5-10.5-62.7-38.2-121.6-80-170-8.4-9.8-29.9-31.1-39.4-39.2-51.8-43.7-114.8-71-184.5-79.8C379.3 1 337.4-.3 328.5.6zM390 135.5l39.5 39.5-6.3 6.3c-3.4 3.4-6.2 6.7-6.2 7.2 0 1.3 93.2 94.5 94.5 94.5.5 0 3.8-2.8 7.2-6.2l6.3-6.3 39.8 39.8 39.7 39.7-59.3 59.2-59.2 59.3-39.7-39.7-39.8-39.8 12.3-12.3c6.7-6.7 12.2-12.7 12.2-13.2 0-.6-2.8-3.9-6.3-7.3l-6.2-6.2-34 34-34 34 6.8 6.7 6.7 6.8 13-13 13-13 39.5 39.5c21.7 21.7 39.5 40 39.5 40.7 0 1.1-117.8 118.3-119 118.3-.3 0-18.3-17.8-40-39.5L270.5 525l6.3-6.3c3.4-3.4 6.2-6.7 6.2-7.2 0-1.3-93.2-94.5-94.5-94.5-.5 0-3.8 2.8-7.2 6.2l-6.3 6.3-39.8-39.8L95.5 350l59.8-59.7 59.7-59.8 39.7 39.7 39.8 39.8-12.8 12.8-12.7 12.7 8.3 8.3 8.2 8.2 33.8-33.8 33.7-33.7-7.8-7.8c-4.2-4.2-8.2-7.7-8.7-7.7s-6.5 5.5-13.2 12.2L311 293.5l-39.8-39.8-39.7-39.7 59-59c32.4-32.4 59.2-59 59.5-59 .3 0 18.3 17.8 40 39.5z"/></svg>